<svg width="24" height="24" viewBox="0 0 24 24" fill="none" xmlns="http://www.w3.org/2000/svg">
<mask id="mask0_24378_31182" style="mask-type:alpha" maskUnits="userSpaceOnUse" x="0" y="0" width="24" height="24">
<rect width="24" height="24" fill="#040921"/>
</mask>
<g mask="url(#mask0_24378_31182)">
</g>
<g clip-path="url(#clip0_24378_31182)">
<path d="M17.545 14.8943C17.0077 14.8943 16.5735 15.3286 16.5735 15.8658V18.9175C16.5735 19.4538 16.1382 19.8891 15.6019 19.8891H4.91468C4.37836 19.8891 3.94313 19.4538 3.94313 18.9175V6.28719C3.94313 5.75088 4.3784 5.31565 4.91468 5.31565H10.5595C11.0967 5.31565 11.531 4.88136 11.531 4.3441C11.531 3.80685 11.0967 3.37256 10.5595 3.37256H4.91468C3.30771 3.37248 2 4.68023 2 6.28719V18.9175C2 20.5245 3.30771 21.8322 4.91468 21.8322H15.6019C17.2088 21.8322 18.5165 20.5255 18.5165 18.9175V15.8659C18.5166 15.3286 18.0823 14.8943 17.545 14.8943Z" fill="white"/>
<path d="M20.9149 3.24901C20.2096 2.54367 19.2885 2.18805 18.3607 2.16864C17.3843 2.14727 16.402 2.5009 15.6636 3.24026L9.08611 9.81776C8.1262 10.7816 7.59766 12.0601 7.59766 13.4184V15.5947C7.59766 16.1319 8.03195 16.5662 8.5692 16.5662H10.7455C12.1038 16.5662 13.3823 16.0377 14.3471 15.0768L20.9158 8.50802C22.3635 7.05949 22.3635 4.69859 20.9149 3.24901ZM12.9743 13.7021C12.3787 14.2957 11.586 14.6232 10.7456 14.6232H9.54079V13.4184C9.54079 12.578 9.8682 11.7852 10.4609 11.1906L14.797 6.8545L17.3094 9.36695L12.9743 13.7021ZM19.5411 7.13527L18.6832 7.99319L16.1708 5.48073L17.0286 4.62285C17.7223 3.92915 18.8493 3.93111 19.5411 4.62285C20.2329 5.31554 20.2329 6.44255 19.5411 7.13527Z" fill="white"/>
</g>
<defs>
<clipPath id="clip0_24378_31182">
<rect width="20" height="20" fill="white" transform="translate(2 2)"/>
</clipPath>
</defs>
</svg>
