<svg width="21" height="20" viewBox="0 0 21 20" fill="none" xmlns="http://www.w3.org/2000/svg">
<path fill-rule="evenodd" clip-rule="evenodd" d="M9.05078 8C11.2599 8 13.0508 6.20914 13.0508 4C13.0508 1.79086 11.2599 0 9.05078 0C6.84164 0 5.05078 1.79086 5.05078 4C5.05078 6.20914 6.84164 8 9.05078 8ZM9.05078 6C10.1554 6 11.0508 5.10457 11.0508 4C11.0508 2.89543 10.1554 2 9.05078 2C7.94621 2 7.05078 2.89543 7.05078 4C7.05078 5.10457 7.94621 6 9.05078 6Z" fill="#F59245"/>
<path d="M1.40122 13.4349C2.75604 11.457 5.1716 10 9.05122 10C10.2775 10 11.3624 10.1448 12.3185 10.4107C12.8506 10.5587 13.162 11.11 13.014 11.6421C12.866 12.1742 12.3147 12.4856 11.7826 12.3376C11.0227 12.1263 10.1204 12 9.05122 12C5.73085 12 3.97974 13.2096 3.05122 14.5651C2.30343 15.6568 2.02377 16.9395 2.00112 18H11.0506C11.6029 18 12.0506 18.4477 12.0506 19C12.0506 19.5523 11.6029 20 11.0506 20H1.05122C0.546897 20 0.121496 19.6245 0.0589423 19.124C-0.129767 17.6144 0.0879716 15.352 1.40122 13.4349Z" fill="#F59245"/>
<path d="M16.0508 20C15.4985 20 15.0508 19.5523 15.0508 19V17H13.0508C12.4985 17 12.0508 16.5523 12.0508 16C12.0508 15.4477 12.4985 15 13.0508 15H15.0508V13C15.0508 12.4477 15.4985 12 16.0508 12C16.6031 12 17.0508 12.4477 17.0508 13V15H19.0508C19.6031 15 20.0508 15.4477 20.0508 16C20.0508 16.5523 19.6031 17 19.0508 17H17.0508V19C17.0508 19.5523 16.6031 20 16.0508 20Z" fill="#F59245"/>
</svg>
