<svg width="20" height="20" viewBox="0 0 20 20" fill="none" xmlns="http://www.w3.org/2000/svg">
<path fill-rule="evenodd" clip-rule="evenodd" d="M2 14V16C2 18.21 3.791 20 6 20H16C18.21 20 20 18.21 20 16C20 12.671 20 7.33 20 4C20 1.791 18.21 0 16 0C13.141 0 8.86 0 6 0C3.791 0 2 1.791 2 4V6C2 6.552 2.448 7 3 7C3.552 7 4 6.552 4 6C4 6 4 5.063 4 4C4 2.896 4.896 2 6 2H16C17.105 2 18 2.896 18 4V16C18 17.105 17.105 18 16 18C13.141 18 8.86 18 6 18C4.896 18 4 17.105 4 16C4 14.938 4 14 4 14C4 13.449 3.552 13 3 13C2.448 13 2 13.449 2 14ZM9.586 9L8.293 7.70799C7.903 7.31699 7.903 6.684 8.293 6.293C8.684 5.903 9.317 5.903 9.707 6.293L12.707 9.293C13.098 9.684 13.098 10.317 12.707 10.708L9.707 13.708C9.317 14.098 8.684 14.098 8.293 13.708C7.903 13.317 7.903 12.684 8.293 12.293L9.586 11H1C0.448 11 0 10.552 0 10C0 9.449 0.448 9 1 9H9.586Z" fill="#F59245"/>
</svg>
