<svg width="20" height="16" viewBox="0 0 20 16" fill="none" xmlns="http://www.w3.org/2000/svg">
<path d="M15 12C15.5523 12 16 11.5523 16 11C16 10.4477 15.5523 10 15 10C14.4477 10 14 10.4477 14 11C14 11.5523 14.4477 12 15 12Z" fill="#F59245"/>
<path fill-rule="evenodd" clip-rule="evenodd" d="M0 3C0 1.34315 1.34315 0 3 0H17C18.6569 0 20 1.34315 20 3V13C20 14.6569 18.6569 16 17 16H3C1.34315 16 0 14.6569 0 13V3ZM3 2C2.44772 2 2 2.44772 2 3V4H18V3C18 2.44772 17.5523 2 17 2H3ZM2 13V6H18V13C18 13.5523 17.5523 14 17 14H3C2.44772 14 2 13.5523 2 13Z" fill="#F59245"/>
</svg>
