<svg width="24" height="24" viewBox="0 0 24 24" fill="none" xmlns="http://www.w3.org/2000/svg">
<path d="M19.8588 7.35714V4.14286H16.6445C15.2291 4.14286 15.2266 2 16.6445 2H20.2446C20.7104 2.00052 21.1571 2.18581 21.4865 2.51522C21.8159 2.84463 22.0012 3.29126 22.0017 3.75711V7.35714C22.0017 8.77286 19.8588 8.77464 19.8588 7.35714Z" fill="#F59245"/>
<path d="M2 7.35714V3.75711C2.00052 3.29126 2.18581 2.84463 2.51522 2.51522C2.84463 2.18581 3.29126 2.00052 3.75711 2H7.35714C8.77257 2 8.77509 4.14286 7.35714 4.14286H4.14286V7.35714C4.14286 8.77286 2 8.77464 2 7.35714Z" fill="#F59245"/>
<path d="M20.2446 21.9999H16.6445C15.2291 21.9999 15.2266 19.8571 16.6445 19.8571H19.8588V16.6428C19.8588 15.2271 22.0017 15.2253 22.0017 16.6428V20.2428C22.0012 20.7086 21.8159 21.1553 21.4865 21.4847C21.1571 21.8141 20.7104 21.9994 20.2446 21.9999Z" fill="#F59245"/>
<path d="M7.35714 21.9999H3.75711C3.29126 21.9994 2.84463 21.8141 2.51522 21.4847C2.18581 21.1553 2.00052 20.7086 2 20.2428V16.6428C2 15.2271 4.14286 15.2253 4.14286 16.6428V19.8571H7.35714C8.77257 19.8571 8.77509 21.9999 7.35714 21.9999Z" fill="#F59245"/>
<path d="M20.9275 13.0713H3.07033C1.6549 13.0713 1.65238 10.9285 3.07033 10.9285H20.9275C22.3429 10.9285 22.3454 13.0713 20.9275 13.0713Z" fill="#F59245"/>
</svg>
