<svg width="20" height="20" viewBox="0 0 20 20" fill="none" xmlns="http://www.w3.org/2000/svg">
<path fill-rule="evenodd" clip-rule="evenodd" d="M18.723 14.1339C19.5514 12.699 19.0598 10.8642 17.6249 10.0358L17.5628 9.99994L17.6249 9.9641C19.0597 9.13568 19.5514 7.30091 18.7229 5.86603L17.7229 4.13398C16.8945 2.6991 15.0597 2.20747 13.6249 3.0359L13.5627 3.0718V3C13.5627 1.34315 12.2195 2.94419e-07 10.5627 2.90038e-07L8.56268 0C6.90583 2.02095e-07 5.56268 1.34315 5.56268 3L5.56268 3.07168L5.50056 3.03582C4.06568 2.20739 2.23091 2.69902 1.40248 4.13389L0.402483 5.86594C-0.425944 7.30082 0.0656799 9.13559 1.50056 9.96402L1.56277 9.99994L1.5005 10.0359C0.0656239 10.8643 -0.426002 12.6991 0.402424 14.134L1.40242 15.866C2.23085 17.3009 4.06562 17.7925 5.5005 16.9641L5.56268 16.9282V17C5.56268 18.6569 6.90582 20 8.56268 20H10.5627C12.2195 20 13.5627 18.6569 13.5627 17V16.9281L13.6249 16.964C15.0598 17.7925 16.8946 17.3008 17.723 15.8659L18.723 14.1339ZM14.5627 4.80384C13.2294 5.57365 11.5627 4.6114 11.5627 3.07179V3C11.5627 2.44772 11.115 2 10.5627 2L8.56268 2C8.01042 2 7.56271 2.44768 7.56268 2.99994L7.56268 3.07169C7.56267 4.61124 5.8961 5.57349 4.56277 4.80378L4.50056 4.76787C4.02227 4.49173 3.41068 4.6556 3.13453 5.13389L2.13453 6.86595C1.85839 7.34424 2.02227 7.95583 2.50056 8.23197L2.56269 8.26784C3.89611 9.03759 3.89615 10.9622 2.56277 11.732L2.5005 11.7679C2.02221 12.0441 1.85833 12.6557 2.13447 13.134L3.13448 14.866C3.41062 15.3443 4.02221 15.5082 4.5005 15.2321L4.56269 15.1961C5.89602 14.4264 7.56267 15.3886 7.56268 16.9282V17C7.56268 17.5523 8.01039 18 8.56268 18H10.5627C11.115 18 11.5627 17.5523 11.5627 17V16.9281C11.5627 15.3884 13.2294 14.4262 14.5628 15.1961L14.6249 15.232C15.1032 15.5081 15.7148 15.3442 15.9909 14.8659L16.9909 13.1339C17.2671 12.6556 17.1032 12.044 16.6249 11.7679L16.5627 11.732C15.2295 10.9621 15.2295 9.03768 16.5628 8.2679L16.6249 8.23205C17.1032 7.9559 17.267 7.34431 16.9909 6.86603L15.9909 5.13398C15.7147 4.65568 15.1032 4.49181 14.6249 4.76795L14.5627 4.80384Z" fill="#F59245"/>
<path fill-rule="evenodd" clip-rule="evenodd" d="M9.5625 11.9999C10.6671 11.9999 11.5625 11.1045 11.5625 9.99994C11.5625 8.89537 10.6671 7.99994 9.5625 7.99994C8.45793 7.99994 7.5625 8.89537 7.5625 9.99994C7.5625 11.1045 8.45793 11.9999 9.5625 11.9999ZM9.5625 13.9999C11.7716 13.9999 13.5625 12.2091 13.5625 9.99994C13.5625 7.7908 11.7716 5.99994 9.5625 5.99994C7.35336 5.99994 5.5625 7.7908 5.5625 9.99994C5.5625 12.2091 7.35336 13.9999 9.5625 13.9999Z" fill="#F59245"/>
</svg>
